<?xml version="1.0" standalone="no"?>
<!DOCTYPE svg PUBLIC "-//W3C//DTD SVG 1.1//EN" "http://www.w3.org/Graphics/SVG/1.1/DTD/svg11.dtd" >
<svg xmlns="http://www.w3.org/2000/svg">
<metadata></metadata>
<defs>
<font id="huruf_mirantiregular" horiz-adv-x="720" >
<font-face units-per-em="2048" ascent="1638" descent="-410" />
<missing-glyph horiz-adv-x="475" />
<glyph horiz-adv-x="2048" />
<glyph horiz-adv-x="2048" />
<glyph unicode="&#xd;" horiz-adv-x="2048" />
<glyph unicode=" "  horiz-adv-x="475" />
<glyph unicode="&#x09;" horiz-adv-x="475" />
<glyph unicode="&#xa0;" horiz-adv-x="475" />
<glyph unicode="!" horiz-adv-x="555" d="M182 147q0 29 18.5 47.5t47.5 18.5q27 0 46 -18.5t19 -47.5q0 -27 -19.5 -46t-45.5 -19q-29 0 -47.5 19.5t-18.5 45.5zM207 332v1054q0 20 12 29.5t27.5 9.5t29 -9t13.5 -30v-1054q0 -16 -12.5 -28.5t-28.5 -12.5t-28.5 12t-12.5 29z" />
<glyph unicode="$" horiz-adv-x="913" d="M2.5 426q-20.5 86 15.5 174q14 35 43 47t57.5 6t50 -27.5t26.5 -52.5q6 -51 -14.5 -77.5t-40 -48t-25.5 -47t26 -74.5q41 -66 107.5 -96.5t140.5 -34.5v571q-98 55 -181 119.5t-116 150.5q-33 84 -19.5 156t58.5 126t113.5 88t144.5 42v127q0 16 12.5 28.5t28.5 12.5 t28.5 -12.5t12.5 -28.5v-125q61 -6 119.5 -30.5t104.5 -73t75 -120t31 -169.5q-2 -16 -15.5 -27.5t-29.5 -9.5q-16 4 -27.5 16.5t-9.5 28.5q-2 76 -22.5 132t-55.5 93t-79 55.5t-91 22.5v-551q88 -51 173 -108.5t140.5 -123t64.5 -144.5t-54 -173q-43 -63 -131.5 -102 t-192.5 -49v-185q0 -16 -12.5 -27t-28.5 -11t-28.5 11t-12.5 27v181q-90 2 -173 46t-138 112.5t-75.5 154.5zM154 1144q-2 -58 41 -124q25 -41 77 -78t117 -78v500q-61 -10 -115.5 -41t-86 -76t-33.5 -103zM471 197q92 10 167.5 48t98.5 89q31 68 18.5 122t-52 100t-101 86 t-131.5 79v-524z" />
<glyph unicode="," horiz-adv-x="382" d="M148.5 141q-3.5 27 13.5 47q16 23 42.5 26t49.5 -13q31 -25 25 -60q2 -29 -16.5 -56.5t-37.5 -49.5q-10 -14 -26.5 -15.5t-30.5 9.5q-12 10 -14 26.5t8 30.5q4 4 5 6t5 6q-20 16 -23.5 43z" />
<glyph unicode="." horiz-adv-x="434" d="M170 147q0 29 19.5 47.5t46.5 18.5q29 0 47 -18.5t18 -47.5q0 -27 -18 -46t-47 -19q-27 0 -46.5 19.5t-19.5 45.5z" />
<glyph unicode="0" horiz-adv-x="1015" d="M1 842q9 121 49 232.5t112 191.5q61 68 136 103.5t154.5 35.5t156.5 -38t141 -116q68 -84 106.5 -194.5t45.5 -230t-15.5 -238.5t-75.5 -216.5t-136 -164t-198 -82.5h4q-8 -4 -16 -4t-12 2q-2 -2 -11 -2q-6 0 -18 4q-115 16 -199 85t-137 169t-74.5 221t-12.5 242z M85 765q-1 -140 40 -262t123 -207t205 -95q94 8 163.5 58t115.5 129t69.5 177.5t23.5 199.5t-23.5 199.5t-69.5 178.5t-115.5 131t-163.5 61h4q-123 -12 -206 -98t-124 -209t-42 -263z" />
<glyph unicode="1" horiz-adv-x="348" d="M0 1386q0 16 12.5 28.5t28.5 12.5h149q16 0 28.5 -12t12.5 -29v-1234q0 -16 -12 -27.5t-29 -11.5q-16 0 -28 11t-12 28v1194h-109q-16 0 -28.5 12t-12.5 28z" />
<glyph unicode="2" horiz-adv-x="778" d="M0 156q0 45 1 100t5 102q10 86 44 146.5t82 104.5t105.5 77t115 64.5t108.5 65.5t87 81t50 109.5t0 152.5q-10 63 -51 105.5t-97.5 62t-119 17t-115.5 -27t-91 -73.5t-42 -121q2 -16 -10.5 -28.5t-28.5 -12.5q-16 -2 -28.5 10.5t-14.5 28.5q6 102 52 167t112.5 98.5 t145.5 37.5t150.5 -16.5t127 -62t78.5 -101.5q41 -111 31.5 -196.5t-55.5 -155.5t-119.5 -126t-162.5 -108q-100 -57 -155 -97t-82 -86t-33 -110.5t-8 -170.5h569q16 0 28.5 -12.5t12.5 -28.5t-12 -27.5t-29 -11.5h-606q-16 0 -25 8q-20 10 -20 35z" />
<glyph unicode="3" horiz-adv-x="800" d="M2 518q4 16 17.5 24.5t27.5 6.5t24.5 -13.5t8.5 -33.5q-4 -53 11 -106.5t51 -96.5t91.5 -71.5t128.5 -34.5q2 0 3.5 -1.5t3.5 -1.5t3 1.5t5 1.5q70 6 123 32.5t89 66.5t53 90t17 101t-17 100.5t-53 89.5t-89 67.5t-125 33.5h-154q-25 0 -37 14.5t-12 31t12.5 30.5 t36.5 14h76h82q55 6 95 27.5t67.5 55.5t41 75t13.5 84t-13.5 84t-41 74.5t-67.5 56t-95 29.5q-8 0 -12 2q-4 -2 -11 -2q-59 -6 -101 -31t-69.5 -61.5t-39 -82t-7.5 -90.5q2 -20 -8 -31.5t-23.5 -14.5t-26.5 4.5t-20 23.5q-8 61 5.5 121.5t48.5 111t95 84t146 43.5h11h12 q78 -8 134 -37.5t92 -72.5t53.5 -96.5t17.5 -108.5q0 -90 -41 -171t-119 -122q106 -41 163.5 -124t57.5 -199q0 -39 -6 -82q-25 -150 -116 -218.5t-240 -82.5h-6h-4q-150 14 -241 82.5t-116 218.5q-10 55 -6 104z" />
<glyph unicode="4" horiz-adv-x="802" d="M-2 608l281 789q6 16 21 23t32 1q16 -6 23 -21.5t1 -31.5l-262 -735h512v753q0 16 12.5 28.5t28.5 12.5h2q16 0 28.5 -12t12.5 -29v-1234q0 -16 -12 -27.5t-29 -11.5q-16 0 -28.5 11t-12.5 28v399h-567q-14 0 -23 8q-12 6 -17 19.5t-3 29.5z" />
<glyph unicode="5" horiz-adv-x="770" d="M-2 203q4 16 18.5 24.5t30.5 3.5q121 -25 225.5 -27.5t181 32t119.5 117.5t41 233q-2 141 -46 220t-118.5 112.5t-175 31.5t-217.5 -22q-16 -4 -30.5 4t-18.5 24q-4 12 0 25v405h2q0 16 12.5 28.5t28.5 12.5h543q16 0 28.5 -12t12.5 -29q0 -16 -12.5 -28t-28.5 -12h-502 v-330q127 18 236.5 12t190.5 -52t128 -139.5t51 -248.5q4 -246 -124 -370t-375 -99l-170 35q-16 4 -24.5 18t-6.5 31z" />
<glyph unicode="6" horiz-adv-x="778" d="M0 612l2 2q-6 86 0 175.5t19.5 172t35 157.5t49.5 132q49 100 119 150.5t145.5 52.5t150.5 -43t136 -133q10 -14 5 -30.5t-19 -24.5q-16 -8 -31.5 -4t-23.5 20l2 2q-47 68 -102.5 101.5t-110.5 30.5t-106.5 -42t-88.5 -114q-39 -78 -64.5 -186.5t-35.5 -225.5 q76 96 194.5 116.5t239.5 -47.5q90 -53 131 -141t42 -186t-33.5 -193.5t-95 -160t-144.5 -86t-183 27.5q-109 57 -164 183t-67 280q-2 4 -2 14zM80 606q10 -121 49 -221t113 -160q59 -47 119.5 -43t109.5 42t85 103.5t47 140.5t-7 152.5t-74 139.5q-45 51 -113.5 70.5 t-136 2t-122 -73t-70.5 -153.5z" />
<glyph unicode="7" horiz-adv-x="684" d="M0 1386q0 16 12.5 28.5t28.5 12.5h567q13 0 29 -12q20 -16 12 -45l-416 -1231q-6 -16 -21 -23t-32 -1q-16 4 -23 19.5t-1 31.5l397 1180h-512q-16 0 -28.5 12t-12.5 28z" />
<glyph unicode="8" horiz-adv-x="800" d="M2 412q-23 147 31.5 251.5t177.5 153.5q-57 31 -95 85t-54.5 118.5t-9.5 132.5t41 125t95.5 98t155.5 51h23q94 -10 156.5 -50t96 -97t41 -125t-8 -132.5t-53.5 -118.5t-95 -85q125 -49 182 -154.5t33 -252.5q-25 -150 -116 -218.5t-241 -80.5h7h-11q-150 12 -240.5 80.5 t-115.5 218.5zM77 480.5q-1 -70.5 29.5 -132t93 -105.5t156.5 -53h15q94 8 156.5 52.5t94 106t31.5 132t-31.5 132t-95 106.5t-157.5 53h4h-13q-94 -10 -156.5 -54t-94 -105.5t-32.5 -132zM125 1105q0 -58 24.5 -109.5t72.5 -87.5t120 -44h25q72 6 120 43t72.5 88.5 t24.5 109.5t-23.5 109.5t-71.5 88.5t-122 45h-23q-74 -8 -122 -45t-72.5 -88.5t-24.5 -109.5z" />
<glyph unicode="9" horiz-adv-x="784" d="M-4 1009.5q-2 96.5 31.5 189.5t94 157.5t145.5 87t184 -22.5q68 -31 112.5 -87t71.5 -123.5t38 -138.5t11 -128v-2q6 -86 1 -174t-20.5 -172t-38 -159t-51.5 -132q-49 -100 -117.5 -150.5t-144 -52.5t-151.5 42t-137 135q-8 14 -4 30.5t20 24.5t31.5 4t23.5 -21h2 q47 -68 102.5 -101.5t111 -30.5t106.5 42t88 117t63.5 185.5t36.5 224.5q-78 -96 -195.5 -117t-238.5 49q-90 51 -132 139t-44 184.5zM81 1088.5q-11 -74.5 6 -151.5t73 -140q45 -49 113.5 -68.5t136 -3.5t121 71.5t69.5 155.5q0 125 -42 222.5t-118 156.5q-59 47 -118.5 43 t-108.5 -43t-85 -103.5t-47 -139z" />
<glyph unicode="?" horiz-adv-x="811" d="M31 1217q6 96 63.5 152t138 76.5t168.5 6.5t155 -62.5t99.5 -127t-0.5 -185.5q-23 -70 -66.5 -102.5t-89.5 -54t-80 -46t-34 -75.5q0 -111 1 -233t1 -234q0 -20 -13.5 -30.5t-28.5 -10.5t-27.5 10t-12.5 31q0 111 -1 233.5t-1 233.5q0 51 17.5 83.5t44 54t59.5 37 t62.5 32t55 38t36.5 58.5q23 78 -1 135t-74 91t-115.5 44t-125 -3t-102.5 -51t-47 -101q0 -16 -12.5 -28.5t-28.5 -12.5t-28.5 12.5t-12.5 28.5zM281 147q0 29 18 47.5t47 18.5t47.5 -18.5t18.5 -47.5q0 -27 -18.5 -46t-47.5 -19t-47 19.5t-18 45.5z" />
<glyph unicode="A" horiz-adv-x="1605" d="M2 136q8 30 29.5 48.5t51.5 22.5t58 -12q41 -25 51 -62t18 -69q10 -32 28 -54q17 -21 66 -21q4 0 9 1q43 0 81 27.5t59 84.5l2 6q2 7 13 42.5t34.5 112.5t67.5 220.5t113 364.5t169 545q9 29 35 29q4 0 8 -1h7q27 0 36 -28q14 -47 41 -132t58.5 -188.5t65.5 -215.5 t64.5 -210t54 -174t33.5 -108q14 -43 35 -88.5t51.5 -75t70.5 -38.5q10 -2 20 -2q33 0 73 21q49 25 69.5 71t31.5 95q4 16 18 26.5t31 6.5q17 -3 27 -17q8 -10 7 -21q0 -4 -1 -9q-10 -41 -23.5 -78t-34 -68.5t-50.5 -55t-73 -38.5q-44 -14 -82 -14q-30 0 -55 9 q-57 20 -97 65t-65.5 107.5t-42.5 123.5l-30 98h-480l2 11l-125 -406q-32 -100 -104 -139q-63 -35 -134 -35q-10 0 -18 1q-80 5 -153.5 48t-110.5 109q-12 23 -12 44q0 11 2 20zM684 575h426l-213 691z" />
<glyph unicode="B" horiz-adv-x="1038" d="M-196 1214q-2 18 -1 36q1 23 3 48q4 43 14 84t24 70q41 84 111 134q71 50 151 70q56 14 115 14q26 0 52 -2q87 -9 163 -43t134.5 -92t80.5 -138q22 -70 23 -133q0 -35 -8 -67q-20 -91 -74 -161q106 -25 181 -105.5t111 -186.5q30 -89 30 -187v-36q-6 -118 -63.5 -217 t-169.5 -166.5t-286 -72.5q-47 0 -79.5 3.5t-62.5 9.5t-60.5 15t-73.5 22q-20 2 -32.5 18t-2.5 37v1218q0 16 12.5 28.5t28.5 12.5h2q16 0 28.5 -12t12.5 -29v-425l84 -5q86 6 157.5 39t117.5 87q47 52 61 126q5 26 5 54q0 52 -18 110q-27 86 -104.5 141.5t-172.5 70.5 q-34 5 -67 5q-61 1 -123 -17q-96 -28 -157 -106q-31 -41 -39 -68.5t-2 -50t21.5 -40t30.5 -38t26.5 -44t7.5 -58.5q-4 -31 -25.5 -52t-50.5 -27.5t-57.5 6t-42.5 47.5q-12 33 -16 73zM166 184q129 -33 230 -33q26 1 50 3q118 10 198.5 56t125.5 118q46 71 58 154q6 37 5 74 q-1 46 -9 92q-16 83 -55.5 150.5t-101 111.5t-139.5 48q-4 0 -7 1.5t-7 1.5v2q-109 -76 -260 -86l-88 2v-695z" />
<glyph unicode="C" horiz-adv-x="886" d="M0 672q-2 32 -2 65q0 122 30 244q38 154 109 274q47 78 109 125q62 46 128 64q38 10 77 11q29 0 59 -6q70 -13 133 -56q55 -33 101.5 -86.5t58.5 -102.5q4 -15 4 -27q1 -21 -9 -37q-16 -26 -41.5 -38t-56 -9t-53.5 25q-33 35 -34 78t-6 82t-33.5 66.5t-116.5 29.5h4 q-70 0 -135.5 -40t-114.5 -122q-45 -72 -76 -160q-31 -86 -44 -180q-9 -68 -9 -136q0 -26 1 -52q5 -94 31.5 -179t78 -157t129.5 -119q72 -44 143 -44q23 1 47 5q94 20 184 70q14 8 29.5 5t26.5 -19q10 -14 6 -29.5t-19 -26.5q-55 -31 -113 -53q-57 -21 -114 -29 q-22 -3 -45 -3q-35 1 -71 7q-58 12 -117 48q-135 84 -202 221t-77 291z" />
<glyph unicode="D" horiz-adv-x="1046" d="M-162 1278q8 125 58.5 207t127 124t170.5 46h22q84 0 171 -27q98 -31 191.5 -92t168 -150.5t124 -204t55.5 -251.5q2 -36 1 -70q-1 -119 -21 -228q-28 -140 -97.5 -249t-187 -179.5t-289.5 -88.5l-158 -2q-20 0 -36.5 7t-16.5 32v1234q0 16 12.5 28.5t28.5 12.5t28.5 -12 t12.5 -29v-1191l121 2q156 16 259 78.5t163 159.5t82 222q17 98 17 206q0 30 -1 61q-8 145 -67.5 265t-148.5 205t-195.5 132t-204.5 49h-8q-93 0 -168 -44q-79 -46 -111 -149q2 -37 18 -60.5t33 -43.5q18 -22 32 -46q10 -19 10 -47q0 -9 -1 -18q-4 -31 -25.5 -52 t-50.5 -27.5t-57.5 6t-42.5 47.5q-14 31 -16.5 66.5t-2.5 70.5z" />
<glyph unicode="E" horiz-adv-x="966" d="M-150 1354q0 68 30 104q30 38 76 52q32 10 68 10q16 0 34 -2q56 -6 104 -27q102 -43 177 -65.5t145 -23.5h6q67 0 141 18q78 20 186 61q16 8 31.5 3t23.5 -22q3 -9 3 -17q0 -7 -2 -15q-5 -16 -21 -23q-86 -33 -161 -54.5t-147 -28.5q-28 -3 -57 -3q-45 0 -92 7 q-76 11 -164 44q-4 0 -8 2l-12 6h2v-544h334q16 0 28.5 -12.5t12.5 -28.5t-12.5 -28.5t-28.5 -12.5h-334v-561h610q16 0 28.5 -12.5t12.5 -28.5t-12 -27.5t-29 -11.5h-637h-8h-6q-16 0 -28.5 11t-12.5 28v1261q-33 11 -69 19q-25 5 -47 6q-9 0 -17 -1q-29 -3 -47.5 -19.5 t-18.5 -55.5q2 -16 -9 -29.5t-27 -15.5t-29.5 9t-16.5 28z" />
<glyph unicode="F" horiz-adv-x="716" d="M-150 1354q0 68 30 104q30 38 76 52q32 10 68 10q16 0 34 -2q56 -6 104 -27q102 -43 177 -65.5t145 -23.5h6q67 0 141 18q78 20 186 61q16 8 31.5 3t23.5 -22q3 -9 3 -17q0 -7 -2 -15q-5 -16 -21 -23q-86 -33 -161 -54.5t-147 -28.5q-28 -3 -57 -3q-45 0 -92 7 q-76 11 -164 44q-4 0 -8 2l-12 6h2v-544h334q16 0 28.5 -12.5t12.5 -28.5t-12.5 -28.5t-28.5 -12.5h-334v-602q0 -16 -12.5 -27.5t-28.5 -11.5t-28.5 11t-12.5 28v1261q-33 11 -69 19q-25 5 -47 6q-9 0 -17 -1q-29 -3 -47.5 -19.5t-18.5 -55.5q2 -16 -9 -29.5t-27 -15.5 t-29.5 9t-16.5 28z" />
<glyph unicode="G" horiz-adv-x="948" d="M0 672q-2 33 -2 65q0 122 30 244q38 154 109 274q47 78 108.5 125t128.5 64q38 11 77 11q29 0 59 -6q70 -13 133 -56q55 -33 101.5 -86.5t58.5 -102.5q4 -15 4 -27q0 -20 -9 -37q-16 -26 -41.5 -38t-56 -9t-53.5 25q-20 23 -26.5 50.5t-8.5 55t-5 55.5t-18.5 48.5 t-48 33.5t-94.5 13h5q-66 0 -129.5 -42t-110.5 -120q-45 -72 -76 -159.5t-44 -180.5q-9 -68 -9 -136q0 -26 1 -52q5 -94 31.5 -179t78 -157t129.5 -119q49 -31 98 -38q24 -3 48 -3q25 0 51 4q50 7 99.5 25.5t96.5 42.5v494h-174q-16 0 -28.5 12t-12.5 29q0 16 12 28.5 t29 12.5h215h4q16 0 28.5 -12.5t12.5 -28.5q0 -10 -4 -19v-536q0 -16 -13 -29q-6 -10 -12 -12q-59 -31 -119.5 -55.5t-122.5 -33.5q-30 -5 -60 -5q-33 0 -66 5q-64 11 -125 50q-135 84 -202 221t-77 291z" />
<glyph unicode="H" horiz-adv-x="964" d="M111 152v1234q0 16 12.5 28.5t28.5 12.5t28.5 -12t12.5 -29v-550h526v550q0 16 12 28.5t29 12.5q16 0 28.5 -12t12.5 -29v-1234q0 -16 -12.5 -27.5t-28.5 -11.5t-28.5 11t-12.5 28v602h-526v-602q0 -16 -12.5 -27.5t-28.5 -11.5t-28.5 11t-12.5 28z" />
<glyph unicode="I" horiz-adv-x="350" d="M104 152v1273q0 16 12.5 28.5t28.5 12.5t28.5 -12t12.5 -29v-1273q0 -16 -12 -27.5t-29 -11.5q-16 0 -28.5 11t-12.5 28z" />
<glyph unicode="J" horiz-adv-x="751" d="M0 418q0 39 21.5 60.5t49 27.5t56.5 -5.5t45 -39.5q14 -25 13 -55.5t-5 -63.5t-8 -62.5t4 -54t32.5 -39t78.5 -14.5q39 0 75.5 14.5t67.5 45t51.5 78.5t24.5 116v6v954q0 20 12 29.5t27.5 9.5t29 -9.5t13.5 -29.5v-954v-6q-6 -86 -33 -149.5t-69 -104.5t-93 -60.5 t-106 -19.5q-76 0 -130.5 32t-89 81t-51 106.5t-16.5 106.5z" />
<glyph unicode="K" horiz-adv-x="905" d="M117 152v1273q0 16 12.5 28.5t28.5 12.5t28.5 -12t12.5 -29v-514l528 529q12 12 29.5 12t27.5 -12q13 -10 13 -29q0 -17 -13 -29l-407 -407l407 -809q8 -16 3 -31.5t-19 -23.5q-10 -5 -20 -5q-6 0 -12 2q-16 5 -23 21l-398 784l-116 -116v-645q0 -16 -12.5 -27.5 t-28.5 -11.5t-28.5 11t-12.5 28z" />
<glyph unicode="L" horiz-adv-x="581" d="M-2 -27q18 66 54 114t83 65v1251q0 20 13.5 29.5t29 9.5t28.5 -9.5t13 -29.5v-1243q57 -2 116.5 -32t110.5 -71q35 -31 67 -59.5t65.5 -55t71.5 -48t83 -37.5q57 -20 91 -20.5t52.5 13t28.5 35t20.5 46t26 47t45.5 34.5q29 14 58.5 6t50.5 -28q20 -22 24 -52v-8 q0 -27 -20 -55q-53 -79 -130 -109q-64 -25 -129 -25q-13 0 -26 1q-106 10 -205.5 69.5t-168.5 131.5q-39 39 -93 75q-55 34 -110 48q-23 6 -45 6q-31 0 -57 -10q-46 -18 -66 -91q-4 -16 -18.5 -27.5t-30.5 -9.5t-25.5 13.5t-7.5 25.5z" />
<glyph unicode="M" horiz-adv-x="1861" d="M-1 140q7 30 28.5 49.5t51.5 23.5t58 -14q39 -25 50.5 -59t18.5 -66.5t21.5 -54t57.5 -21.5q72 2 107.5 25.5t51 58.5t19.5 74t10 73l152 1145q-12 28 11 48q12 10 25 11q11 0 23 -8q94 -76 182 -166t164 -188q47 55 109.5 116.5t148.5 129.5l117 90q18 12 53 12h58v-973 q0 -49 10 -104t36 -99q25 -43 68 -65q22 -11 50 -11q26 0 57 9l2 8q59 18 84.5 68.5t38.5 105.5q4 16 18 26.5t31 6.5q17 -3 27 -17q8 -10 7 -21q0 -4 -1 -9q-12 -49 -32 -95t-50 -80q-31 -35 -73 -55q-38 -19 -89 -18h-10q-72 0 -121 34t-79 85t-42 112.5t-12 118.5v887 q-53 -39 -97.5 -73.5t-93.5 -77.5q-100 -92 -162 -172q33 -51 57 -102q22 -50 30 -95q3 -15 3 -30q1 -28 -9 -54q-14 -39 -54 -65q-32 -23 -72 -23q-11 0 -23 2q-54 8 -87 52q-29 39 -29 107v17q4 80 82 193q-33 43 -71 86t-74.5 82t-72.5 73.5t-63 59.5l-163 -1200 q-23 -84 -81.5 -134.5t-168.5 -54.5h-17q-82 0 -144 35q-69 39 -116 113q-13 27 -13 50q0 9 2 18zM986 746q10 -28 30 -33q6 -2 11 -2q16 0 34 12q31 22 31 58q0 12 -4 25q-14 54 -56 124q-37 -64 -46 -110q-4 -23 -4 -41.5t4 -32.5z" />
<glyph unicode="N" horiz-adv-x="1024" d="M133 152v1234q0 29 27 38q9 3 17 3q16 0 28 -12l536 -534v505q0 20 12.5 29.5t28 9.5t28.5 -9t13 -30v-1234q0 -20 -13 -30.5t-28.5 -10.5t-28 10t-12.5 31v618q-10 2 -14 8l-512 512v-1138q0 -20 -13.5 -30.5t-28.5 -10.5t-27.5 10t-12.5 31z" />
<glyph unicode="O" horiz-adv-x="1028" d="M1 842q9 121 49 232.5t112 191.5q61 68 136 103.5t154.5 35.5t156.5 -38t141 -116q68 -84 106.5 -193.5t47.5 -227.5q3 -35 3 -70q1 -83 -15 -167q-22 -118 -74 -216t-135 -166t-196 -86q-4 0 -14 -1t-20.5 -1t-18.5 1t-10 1q-115 16 -199 85t-137 169q-52 100 -74 221 q-15 85 -16 171q0 35 3 71zM85 765v-7q0 -136 40 -255q41 -122 123 -207t205 -95q94 8 163.5 58t115.5 129t69.5 177.5t23.5 199.5t-23.5 199.5t-69.5 178.5t-115.5 131t-163.5 61h4q-123 -12 -206 -98t-124 -209t-42 -263z" />
<glyph unicode="P" horiz-adv-x="944" d="M-190 1113q-1 12 -1 25q-1 28 3 55q6 40 17 77t24 65q45 94 116.5 155.5t162.5 90.5q85 27 182 27h14q104 -2 213 -35q123 -39 201.5 -120t110.5 -181q23 -71 23 -145q0 -31 -4 -63q-14 -108 -75.5 -199t-170 -153.5t-266.5 -72.5l-153 6v-493q0 -20 -13.5 -30.5 t-28.5 -10.5t-27.5 10t-12.5 31v1234q0 16 12.5 28.5t28.5 12.5h2q16 0 28.5 -12t12.5 -29v-661l149 -4q129 8 218.5 56t141.5 118q52 71 68 153q8 41 8 82q0 40 -8 80q-16 80 -65 147.5t-127 106.5q-84 40 -177 56q-50 8 -98 9q-41 -1 -83 -7q-88 -14 -163 -58.5 t-122 -122.5q-33 -54 -32 -84v-7q5 -30 25 -52q18 -22 40 -49q17 -21 17 -57q0 -10 -1 -21q-4 -33 -25.5 -54.5t-50 -27.5t-57.5 6.5t-43 46.5q-12 31 -14 71z" />
<glyph unicode="Q" horiz-adv-x="1026" d="M0 798q4 140 47 264t126 216t206 123q29 8 72 8t81 -10q121 -33 203 -126t124 -218t45 -265v-22q0 -129 -34 -248q-36 -129 -112 -229.5t-191 -143.5q29 -10 53.5 -26.5t47.5 -34.5q35 -31 67.5 -63.5t66.5 -64.5t70.5 -58.5t81.5 -42.5q63 -23 99.5 -23t55.5 14.5 t27.5 38t16.5 49t22.5 49t45.5 35.5q23 10 43 10q14 0 28 -5q31 -13 46 -41q10 -21 10 -47q0 -10 -2 -20q-5 -38 -37 -71q-74 -74 -158 -94q-43 -10 -85 -10l-83 10q-84 19 -164 74t-145 135q-43 49 -97.5 84t-105.5 44q-14 2 -27 2q-36 0 -67 -17q-43 -25 -64 -97 q-4 -12 -23.5 -25t-35.5 -11t-25.5 20.5t-5.5 32.5l4 16q14 53 40 87t61 55q-115 45 -188.5 146t-108.5 230q-31 116 -31 241v29zM91 756q3 -138 44 -256.5t121 -196.5t195 -78q125 10 205.5 92t119.5 200q37 112 37 240v13q-2 135 -44 254t-123 203t-200 98 q-123 -12 -201.5 -98t-117.5 -209q-36 -114 -36 -242v-20z" />
<glyph unicode="R" horiz-adv-x="1044" d="M-158 1113q-2 19 -2 38q0 22 2 43q4 41 15.5 78t27.5 63q43 94 115 155.5t163 90.5q85 27 183 27h14q106 -2 213 -35q96 -31 165 -87t110 -128t53 -154q6 -38 6 -75q0 -44 -8 -87q-18 -104 -84.5 -196t-183.5 -148l270 -532q5 -10 5 -20q0 -6 -2 -12q-5 -16 -21 -23 q-10 -5 -20 -5q-5 0 -11 2q-16 5 -25 21l-272 539q-43 -14 -82 -19.5t-76 -7.5q-18 -1 -37 -1q-18 0 -38 1q-38 2 -84 4v-493q0 -16 -12.5 -27.5t-28.5 -11.5t-28.5 11t-12.5 28v1234q0 16 12 28.5t29 12.5h2q16 0 28.5 -12t12.5 -29v-661q43 -5 89 -5q42 0 86 4 q93 9 176 45t145.5 104.5t84.5 181.5q6 36 6 72q0 25 -3 49q-7 60 -31.5 115t-66.5 100t-99 73q-82 40 -171 56q-51 9 -100 9q-37 1 -74 -5q-85 -12 -160 -52t-124 -110q-33 -45 -42 -73.5t-4 -49t20.5 -36t29.5 -33t24.5 -41t6.5 -58.5q-4 -33 -26.5 -54.5t-50.5 -27.5 t-56.5 6.5t-42.5 46.5q-11 31 -15 71z" />
<glyph unicode="S" horiz-adv-x="946" d="M2 425q-7 32 -7 63q0 56 23 112q14 35 43 47t57.5 6t50 -27.5t26.5 -52.5q1 -12 1 -22q0 -35 -16 -55q-20 -26 -39.5 -48t-25.5 -48q-1 -4 -1 -8q0 -25 27 -66q35 -55 89 -86q54 -32 116 -42q36 -6 72 -6q26 0 52 4q62 8 116.5 27t94.5 48.5t56 62.5q22 49 22 92 q1 28 -9 54q-24 64 -86 116.5t-148 99.5t-171 97.5t-154.5 109t-98.5 133.5q-23 60 -23 113q-1 22 3 42q14 71 57 124t109.5 88t140.5 45q28 4 56 4q45 0 91 -10q74 -16 134.5 -62.5t99.5 -126t41 -196.5q-2 -16 -15.5 -27.5t-29.5 -9.5q-16 4 -27.5 16.5t-9.5 28.5 q-2 129 -57 199q-54 68 -130 92q-43 13 -88 14q-35 0 -71 -8q-82 -18 -139 -66q-58 -48 -76 -120q-4 -18 -3 -36q0 -56 40 -120q31 -49 105.5 -98.5t163.5 -100.5t175 -108.5t142.5 -124t67.5 -144.5q2 -11 1 -24q0 -69 -55 -152q-25 -37 -67 -65.5t-94 -49t-112.5 -30.5 t-122.5 -10q-92 0 -176 43t-142.5 112.5t-78.5 156.5z" />
<glyph unicode="T" horiz-adv-x="880" d="M0 1386q0 16 12.5 28.5t28.5 12.5h379h379q16 0 28.5 -12t12.5 -29q0 -16 -12.5 -28t-28.5 -12h-338v-1194q0 -16 -12.5 -27.5t-28.5 -11.5t-28.5 11t-12.5 28v1194h-338q-16 0 -28.5 12t-12.5 28z" />
<glyph unicode="U" horiz-adv-x="1130" d="M53 731v655q0 16 12.5 28.5t28.5 12.5t28.5 -12t12.5 -29v-655q0 -92 16.5 -183t58.5 -165t111.5 -123t178.5 -55q115 6 185.5 53t108 121t51 165t13.5 187v655q0 16 12.5 28.5t28.5 12.5t28.5 -12t12.5 -29v-655q0 -109 -17.5 -212t-62.5 -186t-126 -139.5t-206 -68.5 q-12 -2 -26.5 -2t-32.5 2q-123 12 -203 68.5t-127 140.5t-66.5 187.5t-19.5 209.5z" />
<glyph unicode="V" horiz-adv-x="960" d="M0 1374q-2 6 -2 13q0 9 4 19q6 16 23 19h2q16 4 31.5 -3t19.5 -23l342 -1112l338 1114q6 15 20 23q9 4 18 5q6 0 13 -2q17 -4 25 -19q6 -10 5 -21q0 -5 -1 -11l-377 -1235q-5 -14 -17 -22q-10 -6 -19 -6h-5h-7q-27 0 -34 28z" />
<glyph unicode="W" horiz-adv-x="1433" d="M0 1374q-2 6 -2 13q0 9 4 19q6 16 23 19q16 4 31.5 -3t19.5 -23l342 -1112l209 686q4 16 18 23.5t31 2.5q31 -10 31 -41h2l206 -671l340 1114q3 15 19 23q9 4 20 5q7 0 13 -2q16 -4 24 -19q5 -9 5 -18q0 -7 -3 -14l-377 -1235q-4 -14 -15 -22q-9 -6 -18 -6h-5h-3 q-12 0 -23 7t-15 21l-211 676l-205 -676q-5 -14 -17 -22q-10 -6 -19 -6h-5h-7q-27 0 -34 28z" />
<glyph unicode="X" horiz-adv-x="790" d="M-3 1396q3 16 19 23h4q10 5 20 5l12 -2q16 -5 24 -21l274 -543l275 543q7 16 23 21q6 2 12 2q9 0 18 -5q16 -7 22 -23q2 -6 2 -12q0 -10 -6 -20l-301 -596l301 -598q5 -9 5 -18q0 -6 -2 -12q-5 -16 -21 -23q-9 -5 -18 -5q-6 0 -12 2q-16 5 -23 19l-275 545l-274 -545 q-8 -14 -24 -19q-6 -2 -12 -2q-10 0 -20 5q-16 6 -20 22.5t0 30.5l301 598l-301 596q-4 11 -4 21q0 6 1 11z" />
<glyph unicode="Y" horiz-adv-x="784" d="M0 1402q4 15 20 21h3q11 4 20 4q23 0 35 -26l264 -629l266 629q8 16 22 23q7 3 15 3t17 -4q16 -6 22 -21q3 -8 3 -16t-3 -16l-301 -702v-516q0 -16 -12.5 -27.5t-28.5 -11.5t-28.5 11t-12.5 28v516l-299 702q-4 10 -4 19q0 6 2 13z" />
<glyph unicode="Z" horiz-adv-x="788" d="M-4 1381.5q0 15.5 9 28.5t28 13h608q27 0 34 -23.5t-5 -45.5h6l-572 -1157h543q20 0 29.5 -12.5t9.5 -28t-9 -27.5t-30 -12h-594q-35 0 -48 18.5t-1 46.5l574 1159h-541q-20 0 -30.5 12.5t-10.5 28z" />
<glyph unicode="a" horiz-adv-x="686" d="M-2 485q12 193 122 259q78 47 189 48q45 0 97 -8q14 10 26 11q16 0 28.5 -12.5t12.5 -28.5l2 -439q2 -29 8 -56.5t20.5 -44.5t36 -22.5t56.5 11.5q45 20 62.5 66t27.5 89q4 16 18.5 26.5t30.5 6.5q17 -3 27 -17q8 -10 7 -21q0 -4 -1 -9q-10 -37 -22.5 -72.5t-32 -66.5 t-47 -54.5t-68.5 -33.5q-32 -7 -57 -7q-29 0 -51 10q-38 19 -62 60q-31 -35 -76 -53q-40 -16 -85 -16h-10q-50 2 -98 24.5t-86 67.5q-37 45 -59 115q-17 55 -17 126q0 20 1 41zM80 426q6 -98 40 -150q34 -54 77 -72q29 -13 59 -12q14 0 28 2q44 8 72 33q16 14 26.5 37 t10.5 41v400h-2q-45 8 -85 8q-98 0 -156 -49q-71 -59 -71 -196q-1 -20 1 -42z" />
<glyph unicode="b" d="M0 440v946q0 16 12.5 28.5t28.5 12.5t28.5 -12t12.5 -29v-673q54 55 124 77q42 13 82 12q27 0 53 -6q65 -14 112 -67t57 -147v-9v-215v-43q2 -33 9 -64.5t21 -52.5q14 -20 40 -25q5 -1 11 -1q23 0 54 16q45 23 58.5 72t17.5 92q0 16 13.5 28.5t29.5 10.5q39 -4 39 -43 q-6 -43 -16.5 -87t-32 -80t-56 -59.5t-86.5 -25.5h-17q-61 0 -93 25q-38 29 -53 74q-33 -47 -83 -74q-47 -25 -112 -25h-10q-113 2 -165 54.5t-71 130.5q-2 8 -3 28.5t-2 44l-2 47t-1 39.5zM82 338q4 -37 14 -68.5t32 -53.5q22 -24 56 -34q22 -7 52 -6q17 0 36 2 q74 10 107 58.5t49 113.5v223q0 76 -43 112q-42 35 -97 35h-4q-58 -1 -114.5 -39t-83.5 -108q-2 -4 -2 -6t-2 -4v-225z" />
<glyph unicode="c" horiz-adv-x="552" d="M-2 504q10 94 43 155.5t86 93t125 37.5q22 2 45 2q53 0 113 -10q16 -4 24 -18t4 -31q-8 -30 -33 -30q-7 0 -16 2q-45 7 -84 7q-95 0 -153 -43q-74 -56 -74 -200v-29q4 -102 69.5 -178t169.5 -84q14 0 33 -1t40.5 2t45 13.5t45.5 32.5h2q25 23 41.5 55.5t28.5 77.5 q4 16 17.5 26.5t29.5 6.5q16 -3 26 -17q8 -10 8 -21q0 -4 -1 -9q-31 -117 -89.5 -176t-168.5 -70q-2 -2 -8 -2q-14 -1 -27 -1q-72 0 -133 27q-72 32 -120 89q-47 57 -71 133q-19 61 -19 126q0 17 1 34z" />
<glyph unicode="d" d="M0 371v145q0 16 2 42t6 40q18 78 68 128t110 68q31 10 63 10q29 0 61 -8q64 -18 118 -73v663q0 16 12.5 28.5t28.5 12.5t28.5 -12t12.5 -29q0 -242 1 -480t1 -480q0 -8 -1 -20.5t-1 -28.5v-31q0 -35 5 -72.5t19 -63.5q16 -26 42 -35q8 -3 16 -3q22 0 53 16q47 23 59.5 72 t16.5 92q2 16 14.5 28.5t28.5 10.5t28 -14q11 -10 11 -24q1 -31 -15 -92q-12 -44 -33.5 -80t-56 -59.5t-86.5 -25.5q-9 -1 -18 -1q-52 -1 -84 21q-36 24 -55 64q-29 -39 -75 -61.5t-118 -22.5h-11q-54 0 -94 18q-44 20 -77 54q-23 25 -51.5 75t-28.5 128zM80 340 q16 -59 49 -105.5t104 -56.5q20 -2 37 -2q42 0 71 14q40 20 59.5 56.5t23.5 84.5q3 32 3 64q0 16 -1 31q0 35 1 68.5t1 68.5q-2 2 -2 4t-2 6q-29 86 -84 121q-45 28 -90 28q-10 0 -20 -1q-56 -8 -99 -52t-49 -116v-207q0 -4 -2 -6z" />
<glyph unicode="e" horiz-adv-x="608" d="M1 444q3 100 40 180.5t100.5 130.5t134.5 50q47 0 85 -17.5t65 -47t42 -68.5t15 -80v-7q-1 -71 -37 -122q-38 -53 -98 -75q-39 -15 -84 -15q-24 0 -49 4q-72 12 -133 67q2 -37 11 -81t32 -84q41 -70 93 -99.5t122 -29.5h7q99 0 164 53q67 55 97 155q4 16 17.5 26.5 t29.5 6.5q17 -3 27 -17q9 -11 8 -25v-5q-39 -123 -128 -200.5t-208 -77.5q-106 0 -186 43t-121 131q-46 98 -46 193v11zM96 549q48 -53 96 -75q45 -21 82 -21h7q61 4 90.5 46t29.5 91t-29.5 90t-86.5 41h-4q-53 0 -105 -47q-54 -49 -80 -125z" />
<glyph unicode="f" horiz-adv-x="493" d="M0 -283v1256q0 33 13.5 65.5t37 59t55 43t68.5 16.5q51 0 101.5 -31.5t78.5 -99.5q26 -62 26 -151v-19q-3 -102 -56 -244q-39 -102 -89.5 -169.5t-123.5 -129.5q23 -61 69.5 -98t120.5 -37h13q40 0 68 10q32 13 53.5 36.5t34.5 57t24 76.5q4 16 18 26.5t31 6.5 q16 -4 24 -17.5t8 -29.5q-2 -61 -30.5 -113.5t-69.5 -86t-90 -48.5q-25 -7 -49 -7q-23 0 -45 7q41 -51 69.5 -106.5t42.5 -118.5q12 -56 12 -104q0 -41 -9 -76q-19 -76 -61 -122t-99 -61q-27 -8 -53 -8q-28 0 -55 8q-52 17 -91 68t-47 135v6zM80 -287q6 -53 31.5 -83.5 t58.5 -39.5q14 -5 29 -5q18 0 37 7q34 13 58.5 45.5t35.5 86.5q4 22 4 47q0 37 -10 82q-10 49 -36 94t-59.5 86t-71.5 78.5t-75 74.5v-456q0 -10 -2 -17zM82 453q0 -14 1 -25.5t1 -24.5q53 49 93 109.5t71 138.5q45 121 49 206q1 14 1 28q0 66 -16 109q-20 53 -56 72 q-24 13 -47 13q-11 0 -21 -3q-33 -9 -56 -45q-21 -31 -21 -78q0 -8 1 -17v-483z" />
<glyph unicode="g" d="M0 348v160v18q0 51 17.5 100.5t49 86.5t77.5 59.5t102 22.5h8q43 0 87 -19q48 -20 87 -61v43q0 16 12.5 28.5t28.5 12.5t28.5 -12.5t12.5 -28.5v-418q0 -35 5 -69.5t19.5 -59.5t41.5 -35q11 -4 24 -4q20 0 45 8q47 23 59.5 72t16.5 92q2 16 14.5 28.5t28.5 10.5t28 -15 q11 -10 11 -24q0 -32 -17 -91q-12 -44 -34.5 -79t-58.5 -58.5t-87 -25.5q-33 -2 -57.5 14.5t-38.5 28.5v-346q0 -61 -13.5 -117.5t-43 -98.5t-78.5 -66.5t-121 -24.5h-8q-61 0 -102 28q-44 31 -83 80q-10 14 -4 28.5t19.5 24t29 12.5t25.5 -5q23 -29 44.5 -49.5t57.5 -28.5 q21 -3 39 -3q30 0 52 8q36 13 57.5 43t31 75t13.5 100v346q-29 -23 -66.5 -37t-91.5 -14h-6q-105 0 -168 64q-31 29 -62.5 83t-31.5 113zM82 346q16 -66 48 -114t106 -58q19 -2 36 -2q28 0 50 6q36 10 57.5 31.5t32 53.5t14.5 69v225q-2 2 -2 4t-2 6q-29 86 -83 121 q-44 28 -89 28q-10 0 -20 -1q-56 -8 -99 -52.5t-49 -115.5v-201z" />
<glyph unicode="h" d="M0 152v1234q0 16 12.5 28.5t28.5 12.5t28.5 -12t12.5 -29v-673q54 55 124 77q42 13 82 12q27 0 53 -6q65 -14 112 -67t57 -147v-9q2 -29 0 -61v-197q2 -33 9 -64.5t21 -52.5q14 -20 40 -25q5 -1 11 -1q23 0 54 16q45 23 58.5 72t17.5 92q0 16 13.5 28.5t29.5 10.5 q39 -4 39 -43q-6 -43 -16.5 -87t-32 -80t-56 -59.5t-86.5 -25.5h-12q-47 0 -77 14q-34 16 -54 45t-28.5 66t-10.5 76q-2 4 -2 8v8q-1 42 -1 86v45q1 68 1 129v7q-8 80 -53 112q-40 29 -89 29h-12q-56 -4 -109.5 -44t-78.5 -104q-2 -4 -2 -6t-2 -4v-411q0 -16 -12.5 -27.5 t-28.5 -11.5t-28.5 11t-12.5 28z" />
<glyph unicode="i" horiz-adv-x="432" d="M-31 946v6q-1 28 17 48q20 22 53 22h6q33 0 55.5 -21.5t22.5 -54.5t-22.5 -55.5t-55.5 -22.5t-53.5 22.5t-22.5 55.5zM2 406.5v33.5v314q0 16 12.5 28.5t28.5 12.5t28.5 -12.5t12.5 -28.5v-416q4 -37 14.5 -68.5t31.5 -53.5q22 -24 56 -34q22 -7 52 -6q17 0 36 2 q76 10 109 62.5t49 117.5q4 16 17.5 26.5t29.5 6.5q17 -3 27 -17q8 -10 7 -21q0 -4 -1 -9q-12 -53 -33.5 -98t-53.5 -79q-32 -33 -76 -53q-40 -18 -92 -18h-11q-113 2 -166 54.5t-70 130.5q-2 8 -4 30.5t-3 47t-1 48z" />
<glyph unicode="j" horiz-adv-x="305" d="M-374 -378q3 18 14.5 29t29 13t33.5 -14q23 -29 44.5 -46.5t57.5 -25.5q22 -3 41 -3q32 0 56 9q39 13 59.5 40.5t28.5 65.5t10 79v51v934q0 16 11.5 28.5t27.5 12.5t30.5 -12.5t14.5 -28.5v-406q0 -20 2 -55t15.5 -64.5t42.5 -44.5q12 -7 29 -7q23 0 54 11 q25 8 39.5 26.5t21.5 41.5t11 48.5t6 47.5q2 16 14.5 28.5t28.5 10.5q39 -4 39 -43q-4 -39 -13 -78t-25.5 -72.5t-45.5 -59t-74 -36.5q-24 -6 -46 -6q-21 0 -41 6q-40 11 -56 39v-305v-55q0 -63 -14.5 -117.5t-46 -94.5t-80.5 -62.5t-117 -22.5h-8q-61 0 -102 28 q-44 29 -83 78q-10 11 -10 25q0 3 1 7zM-39 944q0 33 22.5 54.5t53.5 21.5q33 0 55.5 -21.5t22.5 -54.5t-22.5 -55.5t-55.5 -22.5q-31 0 -53.5 22.5t-22.5 55.5z" />
<glyph unicode="k" horiz-adv-x="634" d="M0 152v1234q0 16 12.5 28.5t28.5 12.5t28.5 -12t12.5 -29v-837l321 239q14 10 31 8.5t27 -16.5q10 -14 8 -30.5t-16 -26.5l-312 -231q27 -45 68 -111t94 -117q53 -50 117 -70q19 -6 38 -7q45 0 93 32q43 29 58.5 64.5t25.5 83.5q2 16 15.5 27.5t29.5 8.5q16 -2 27.5 -15 t9.5 -30q-14 -78 -48 -136t-112 -93q-54 -24 -103 -24q-26 -1 -52 7q-72 20 -131.5 72t-106.5 120.5t-82 129.5v-282q0 -16 -12.5 -27.5t-28.5 -11.5t-28.5 11t-12.5 28z" />
<glyph unicode="l" horiz-adv-x="430" d="M0 440v946q0 16 12.5 28.5t28.5 12.5t28.5 -12t12.5 -29v-1048q4 -37 14 -68.5t32 -53.5q22 -24 56 -34q22 -7 52 -6q17 0 36 2q76 10 109 62.5t49 117.5q4 16 17.5 26.5t29.5 6.5q17 -3 27 -17q8 -10 7 -21q0 -4 -1 -9q-12 -53 -33.5 -98t-53.5 -79q-32 -33 -76 -53 q-40 -18 -92 -18h-11q-113 2 -166 54.5t-70 130.5q-4 16 -6 60t-2 99z" />
<glyph unicode="m" horiz-adv-x="1105" d="M0 152v602q0 16 12.5 28.5t28.5 12.5t28.5 -12.5t12.5 -28.5v-29q46 45 100 65q42 15 82 14q13 0 25 -1q53 -6 98 -38t70 -89q55 84 134 112q44 16 86 16q33 0 63 -10q70 -22 117 -92q41 -62 41 -162q0 -13 -1 -26v-186q0 -35 6 -68t20.5 -56.5t40.5 -29.5q6 -1 12 -1 q22 0 54 15q47 23 59.5 72t16.5 92q2 16 14.5 28.5t28.5 10.5q17 -2 29 -14q11 -10 10 -24q0 -30 -14 -92q-10 -44 -32 -80t-56.5 -59.5t-88.5 -25.5h-11q-46 0 -76 14q-34 16 -54 44t-28.5 65t-10.5 76q-2 43 -2 54v18v206q0 63 -43 103.5t-98 42.5q-51 0 -100.5 -35 t-77.5 -111q-4 -14 -13 -20v-25v-376q0 -16 -12 -27.5t-29 -11.5q-16 0 -28.5 11t-12.5 28v356v61q-6 76 -47 115t-93 39t-102 -38t-77 -112v-2v-419q0 -16 -12.5 -27.5t-28.5 -11.5t-28.5 11t-12.5 28z" />
<glyph unicode="n" horiz-adv-x="692" d="M0 152v602q0 16 12.5 28.5t28.5 12.5t28.5 -12.5t12.5 -28.5v-47q33 51 84 74.5t98 23.5q78 0 140.5 -54.5t76.5 -162.5q2 -16 2 -32.5v-27.5v-213q2 -33 8.5 -64.5t21.5 -52t40 -25.5q5 -1 11 -1q22 0 52 16q47 23 59.5 72t16.5 92q2 16 14.5 28.5t28.5 10.5 q17 -2 29 -14q11 -10 10 -24q0 -30 -15 -92q-11 -44 -32.5 -80t-56.5 -59.5t-86 -25.5h-11q-44 0 -75 14q-35 16 -56.5 46t-31 71t-9.5 86q-2 23 -1 59t1 60v137q-6 76 -47 115t-93 39t-102 -38t-77 -112v-2v-419q0 -16 -12.5 -27.5t-28.5 -11.5t-28.5 11t-12.5 28z" />
<glyph unicode="o" horiz-adv-x="669" d="M-4 358v201q0 51 22.5 96t59.5 77t83 50.5t93 18.5q78 -2 145.5 -50.5t94.5 -152.5q10 -10 10 -27q0 -45 1 -88t1 -86q2 2 10 2q57 16 87 42t67 67q10 14 25.5 17t29.5 -7q15 -10 19 -26q1 -4 1 -8q0 -11 -8 -21q-53 -61 -102 -99t-131 -49q0 -16 -6 -34 q-16 -78 -69.5 -131.5t-166.5 -53.5q-111 0 -188.5 65.5t-77.5 196.5zM78 352q0 -70 41 -117t114 -57q21 -3 40 -3q63 0 95 32q42 41 52 104q-70 4 -112 32t-60 67q-15 34 -15 71q1 5 1 11q2 43 21 79.5t52 58.5q30 21 69 21h7q-33 45 -83 59q-25 7 -49.5 7.5t-47.5 -7.5 q-47 -14 -83 -55t-42 -106v-197zM318 502l-2 -16q0 -16 6 -32q10 -24 34.5 -43.5t67.5 -21.5v139q0 17 -2 25q-22 15 -41 15q-5 0 -9 -1q-22 -4 -36 -21.5t-18 -43.5z" />
<glyph unicode="p" d="M0 -469v1214q0 16 12.5 28.5t28.5 12.5t28.5 -12t12.5 -29v-40q55 55 124 77q42 12 82 12q27 0 53 -6q65 -14 112 -67t57 -148v-8q0 -16 1 -30.5t-1 -30.5v-207v18q2 -33 9 -64.5t21.5 -52t39.5 -25.5q6 -1 11 -1q23 0 54 16q45 23 58.5 72t17.5 92q0 16 13.5 28.5 t29.5 10.5q39 -4 39 -43q-6 -43 -16.5 -87t-32 -80t-56 -59.5t-86.5 -25.5h-17q-60 0 -93 25q-37 29 -53 74q-33 -47 -83 -74q-48 -25 -112 -25h-10q-53 0 -93 14.5t-69 36.5v-602q0 -18 -12.5 -31.5t-28.5 -15.5v-2h-5q-13 0 -24 8q-12 11 -12 27zM92 340q4 -37 14.5 -66.5 t31 -51t52.5 -32.5q25 -9 58 -9q11 0 24 1q37 2 62.5 17.5t43 38t29 52t19.5 62.5v213q0 74 -42 110t-98.5 36t-110.5 -37t-79 -109q-2 -4 -2 -6t-2 -4v-215z" />
<glyph unicode="q" d="M0 342v158v18q0 51 17.5 100.5t50 86t77.5 59t101 22.5h9q44 0 87 -18q47 -20 86 -61v30q0 16 12.5 28.5t28.5 12.5t28.5 -12t12.5 -29v-415v16q0 -35 6 -71t20.5 -60.5t39.5 -32.5q7 -2 15 -2q22 0 54 16q47 23 59.5 72t16.5 92q2 16 14.5 28.5t28.5 10.5q39 -4 39 -43 q0 -49 -9.5 -94t-33 -79t-60 -55.5t-88.5 -23.5h-9q-53 0 -93 21v-572q0 -18 -12.5 -31.5t-28.5 -15.5v-2h-5q-13 0 -24 8q-12 11 -12 27v600q-29 -23 -69 -37t-93 -14h-10q-46 0 -89 16q-48 19 -85 52.5t-59.5 83t-22.5 110.5zM82 336q0 -66 41 -115t115 -59q19 -2 36 -2 q28 0 50 6q36 10 57.5 32.5t32 54.5t14.5 69v225q-2 2 -2 4t-2 6q-29 86 -84 121q-44 28 -89 28q-11 0 -21 -2q-56 -8 -99 -51.5t-49 -115.5v-201z" />
<glyph unicode="r" horiz-adv-x="583" d="M-98 761q-4 14 -4 26q0 21 10 41q18 32 67 49q21 7 38 7q37 0 59 -34q30 -50 37 -129q41 0 89 11t95 40q10 23 35 23q31 0 41 -31q2 -6 3 -13.5t-3 -13.5q0 -164 1 -252t1 -130t1 -46l1 -12q5 -55 29 -94q17 -28 55 -27q16 0 35 4q29 8 46 26.5t26 43t13.5 51.5t6.5 51 q0 16 12 27.5t29 11.5q16 0 28.5 -12t12.5 -29q-4 -43 -14.5 -88t-31 -81t-55.5 -59.5t-88 -25.5h-12q-47 0 -78 14q-35 16 -54.5 44t-28.5 65t-11 78q0 4 -1 9t-1 9q-3 60 -3 121q0 30 1 60q2 92 2 180q-47 -23 -89 -33t-81 -10q-2 -51 -7 -103.5t-11.5 -97.5t-12.5 -80 t-8 -49q-4 -16 -18.5 -24.5t-30.5 -4.5t-25.5 18.5t-7.5 31.5q0 6 5 38.5t10 78.5t10.5 100.5t7.5 103.5q-53 16 -87 48t-44 68zM-19 760q11 -17 39 -27h7q-3 41 -13 59q-5 9 -12 9.5t-16 -8.5t-9 -19q0 -7 4 -14z" />
<glyph unicode="s" horiz-adv-x="774" d="M0 375q0 16 12.5 28.5t28.5 12.5t28.5 -12.5t12.5 -28.5q2 -55 27.5 -92t63.5 -59q38 -24 83 -32q29 -6 57 -5q15 -1 29 1q41 4 75 17.5t48 34.5q24 36 24 61q-1 3 -1 7q-4 26 -27 44.5t-63 31.5t-85 26q-47 12 -94 28.5t-85 40t-60 57.5q-21 31 -21 77v8q4 57 48 106 t112 69q35 11 73 11q36 1 76 -9q82 -20 162 -100q12 -12 11.5 -29.5t-15.5 -27.5q-12 -10 -29.5 -9t-27.5 13q-53 53 -111 69q-36 9 -67 9q-20 0 -39 -4q-47 -10 -79 -39t-32 -62t32 -63.5t103 -50.5l74 -17q47 -10 91 -26.5t76 -43t47 -62.5q10 -23 10 -52q0 -15 -3 -31v-8 q4 -38 34 -64q28 -24 60 -24h5q36 2 68 42t42 134q2 16 14.5 28.5t28.5 10.5q17 -2 29 -14q11 -10 10 -24q0 -99 -55 -175q-43 -58 -95 -76q-24 -8 -49 -9q-28 -1 -57 11q-53 20 -84 70q-33 -31 -82 -48q-48 -16 -104 -20q-10 -1 -21 -1q-46 1 -92 13q-57 16 -104 47.5 t-78 83.5t-35 126z" />
<glyph unicode="t" horiz-adv-x="440" d="M-95 756q0 14 8 26q9 14 30 13h59v475q0 16 12.5 28.5t28.5 12.5t30.5 -12.5t14.5 -28.5v-475h119q20 0 29.5 -13.5t9.5 -29t-9.5 -27.5t-29.5 -12h-119l4 -375q4 -37 14.5 -68.5t31.5 -53.5q22 -24 56 -34q22 -7 52 -6q17 0 37 2q76 10 108.5 62.5t48.5 117.5 q4 16 17.5 26.5t29.5 6.5q17 -3 27 -17q8 -10 7 -21q0 -4 -1 -9q-12 -53 -33.5 -98t-53.5 -79q-32 -33 -76 -53q-40 -18 -92 -18h-11q-70 0 -118 21.5t-78.5 59.5t-44 89t-13.5 113v67v267h-51q-23 0 -33 12q-11 14 -11 31z" />
<glyph unicode="u" horiz-adv-x="708" d="M0 385v369q0 16 12.5 28.5t28.5 12.5t28.5 -12.5t12.5 -28.5v-420q6 -76 49 -115t97 -40h2q52 0 104 36q53 37 80 115v426q0 16 12 28.5t29 12.5q16 0 28.5 -12.5t12.5 -28.5q0 -104 1 -207t1 -207q0 -35 5 -72t19 -62q16 -26 42 -34q7 -2 15 -2q23 0 54 16 q45 23 58.5 72t17.5 92q0 16 13 28.5t30 10.5q39 -4 39 -43q-6 -43 -16.5 -87t-32 -80t-56.5 -59.5t-86 -25.5h-17q-63 0 -95 26q-38 30 -54 77q-43 -53 -95 -79t-103 -26q-108 2 -174 80q-62 74 -62 196v15z" />
<glyph unicode="v" horiz-adv-x="600" d="M2 389l2 365q0 16 12.5 28.5t28.5 12.5t28.5 -12.5t12.5 -28.5v-369q0 -29 7 -60.5t20.5 -59t33 -47t46.5 -23.5q17 -4 32 -4q37 1 66 21q41 28 67.5 76t41 104.5t18.5 101.5v10v2q-61 8 -111 55q-49 47 -53 92q-1 7 -1 14q1 36 19 65q22 34 59 52q26 12 51 11 q12 -1 24 -3q38 -8 66 -46.5t28 -116.5v-41q29 6 54.5 24.5t45.5 53.5q6 16 21.5 22t31.5 0q17 -6 23 -22q3 -8 3 -16t-3 -15q-29 -51 -75 -84t-99 -43v-8q-6 -68 -23.5 -136.5t-52.5 -124t-90 -91t-137 -35.5q-53 0 -91 28.5t-63 70.5t-35 90q-8 40 -8 74v13zM344 645 q25 -35 74 -51v35q0 14 -4 34.5t-12 36.5q-6 15 -20 20q-3 1 -7 1q-11 0 -25 -12q-17 -16 -18 -34q1 -14 12 -30z" />
<glyph unicode="w" horiz-adv-x="1124" d="M0 338v416q0 20 12.5 29.5t27.5 9.5t28.5 -9.5t13.5 -29.5v-420q6 -74 49 -112t96 -42h11q44 0 74 14q34 16 55.5 41t33 53.5t17.5 51.5v414q0 20 12 29.5t27.5 9.5t29 -9.5t13.5 -29.5v-420q6 -74 48 -114t95 -42h6q49 0 99 34q52 36 81 112v2l2 2v2v426q0 20 12.5 29.5 t28 9.5t28.5 -9.5t13 -29.5q0 -94 1 -188v-62q0 -62 -1 -123v-41q0 -35 5.5 -72t19.5 -62.5t41 -33.5q7 -2 16 -2q23 0 54 16q45 23 58 72t17 92q2 16 14.5 28.5t28.5 10.5q39 -4 39 -43q-4 -43 -15 -87t-32.5 -80t-56.5 -59.5t-86 -25.5h-16q-60 0 -94 26q-38 30 -54 77 q-42 -53 -98 -79q-52 -24 -104 -24h-8q-56 2 -107 33t-86 92q-39 -59 -101 -94q-52 -30 -112 -30q-10 0 -21 1q-45 2 -84 23.5t-68.5 54.5t-46 75t-16.5 87z" />
<glyph unicode="x" horiz-adv-x="643" d="M-1 142q-1 5 -1 11q0 10 4 19l168 266q-53 92 -95 175t-65 130q-4 10 -4 19q0 24 29 35q7 3 14 3q9 0 17 -4q14 -8 20 -24h2q16 -35 52 -104.5t83 -151.5l164 258q10 16 25.5 19.5t29.5 -7.5q16 -8 19.5 -24.5t-6.5 -30.5l-187 -295q57 -92 114.5 -165.5t104.5 -86.5 q23 -6 42 -6q18 0 32 6q29 12 45.5 38t24.5 60.5t12 69.5q2 16 14.5 28.5t28.5 10.5t28 -14q11 -10 11 -24q-1 -41 -23 -113q-16 -52 -46 -88t-78 -50q-21 -6 -46 -6q-31 0 -67 10q-59 16 -122.5 88t-123.5 166l-145 -231q-10 -16 -26.5 -19.5t-31.5 7.5q-14 9 -17 25z" />
<glyph unicode="y" d="M0 319v435q0 16 12.5 28.5t28.5 12.5t31.5 -12.5t15.5 -28.5v-441q0 -66 38 -108.5t112 -52.5q22 -3 41 -3q25 0 45 5q34 8 54.5 28.5t30 50t13.5 66.5v455q0 16 13.5 28.5t29.5 12.5t30.5 -12.5t14.5 -28.5v-416q0 -35 5 -68.5t18.5 -57.5t40.5 -32q8 -3 19 -3 q22 0 52 11q47 23 59.5 72t16.5 92q2 16 14.5 28.5t28.5 10.5t28 -14q11 -10 11 -24q0 -32 -15 -92q-12 -44 -33.5 -80t-56 -59.5t-86.5 -25.5h-9q-53 0 -93 21v-361q0 -147 -57.5 -215.5t-200.5 -68.5q-63 0 -112.5 32.5t-88.5 81.5q-10 16 -4 31.5t21.5 25t33 9.5 t29.5 -19q23 -29 44.5 -46t57.5 -25q22 -3 41 -3q25 0 45 5q35 8 56.5 27.5t34 48t16.5 61.5q4 20 3 40.5t-1 41.5v326q-29 -23 -69 -37.5t-93 -14.5h-11q-43 0 -85 15q-47 16 -85 49t-61.5 83t-23.5 115z" />
<glyph unicode="z" horiz-adv-x="528" d="M-87 754q0 14 8 26q9 14 30 13l409 2q23 0 37.5 -19.5t3.5 -42.5l-297 -555q39 -6 91.5 -12t104.5 -7h17q42 0 78 4q43 5 64 21q41 35 53 78t16 90q2 16 14.5 28.5t28.5 10.5q17 -2 29 -14q11 -10 10 -24v-5q-16 -135 -65 -193.5t-125 -73.5q-42 -8 -91 -8q-39 0 -82 5 q-97 12 -208 22q-16 2 -29 19q-16 23 -4 45l291 547h-340q-23 0 -33 12q-11 14 -11 31z" />
<glyph unicode="&#xe0;" horiz-adv-x="686" d="M-2 485q12 193 121.5 259.5t286.5 39.5q14 10 26 11q16 0 28.5 -12.5t12.5 -28.5l2 -439q2 -29 8 -56.5t20.5 -44.5t36 -22.5t56.5 11.5q45 20 62.5 66t27.5 89q4 16 18.5 26.5t30.5 6.5t26.5 -17.5t6.5 -29.5q-10 -37 -22.5 -72.5t-32 -66.5t-47 -54.5t-68.5 -33.5 q-70 -16 -108.5 3t-61.5 60q-31 -35 -76 -53t-95 -16t-98 24.5t-86 67.5t-59.5 115.5t-15.5 166.5zM51 1157q2 17 13.5 27t26.5 12t30 -12q47 -47 71.5 -70.5t44 -44t44 -45.5t71.5 -70q14 -14 12 -30.5t-12 -26.5t-26.5 -12t-30.5 12q-47 45 -71.5 69.5l-44 44t-44.5 44 t-72 71.5q-14 14 -12 31zM80 426q6 -98 40 -150.5t77 -71t87 -10t72 32.5q16 14 26.5 37t10.5 41v400h-2q-160 27 -241.5 -41t-69.5 -238z" />
<glyph unicode="&#xe1;" horiz-adv-x="686" d="M-2 485q12 193 121.5 259.5t286.5 39.5q14 10 26 11q16 0 28.5 -12.5t12.5 -28.5l2 -439q2 -29 8 -56.5t20.5 -44.5t36 -22.5t56.5 11.5q45 20 62.5 66t27.5 89q4 16 18.5 26.5t30.5 6.5t26.5 -17.5t6.5 -29.5q-10 -37 -22.5 -72.5t-32 -66.5t-47 -54.5t-68.5 -33.5 q-70 -16 -108.5 3t-61.5 60q-31 -35 -76 -53t-95 -16t-98 24.5t-86 67.5t-59.5 115.5t-15.5 166.5zM80 426q6 -98 40 -150.5t77 -71t87 -10t72 32.5q16 14 26.5 37t10.5 41v400h-2q-160 27 -241.5 -41t-69.5 -238zM210 923.5q-1 16.5 13 30.5q47 45 71.5 70t44 45.5t44.5 44 t72 70.5q14 14 29.5 12t26.5 -12t13 -27t-12 -31l-71.5 -71.5l-44 -44l-44 -44t-71.5 -69.5q-14 -14 -31 -12t-28 12t-12 26.5z" />
<glyph unicode="&#xe2;" horiz-adv-x="686" d="M-2 485q12 193 121.5 259.5t286.5 39.5q14 10 26 11q16 0 28.5 -12.5t12.5 -28.5l2 -439q2 -29 8 -56.5t20.5 -44.5t36 -22.5t56.5 11.5q45 20 62.5 66t27.5 89q4 16 18.5 26.5t30.5 6.5t26.5 -17.5t6.5 -29.5q-10 -37 -22.5 -72.5t-32 -66.5t-47 -54.5t-68.5 -33.5 q-70 -16 -108.5 3t-61.5 60q-31 -35 -76 -53t-95 -16t-98 24.5t-86 67.5t-59.5 115.5t-15.5 166.5zM33 880.5q-2 16.5 10 30.5q45 45 62.5 63.5t29.5 30t29.5 29l64.5 64.5q12 12 29 12q16 0 29 -12l64.5 -64.5t29.5 -29t29.5 -30t64.5 -63.5q14 -14 12 -30.5t-12 -27.5 t-26.5 -12t-30.5 13l-160 158h2l-158 -158q-14 -14 -30.5 -13t-26.5 12t-12 27.5zM80 426q6 -98 40 -150.5t77 -71t87 -10t72 32.5q16 14 26.5 37t10.5 41v400h-2q-160 27 -241.5 -41t-69.5 -238z" />
<glyph unicode="&#xe3;" horiz-adv-x="686" d="M-4 969q14 53 48 84.5t75 40t87 -7t89 -58.5q18 -18 40.5 -23.5t43 1t38 22.5t25.5 41q4 16 19.5 24.5t32.5 4.5q16 -4 24 -18.5t4 -30.5q-25 -68 -78 -105t-125 -20q-20 4 -54 31.5t-68.5 46t-67.5 13.5t-51 -65q-4 -16 -17.5 -25.5t-29.5 -4.5q-16 4 -26.5 18.5 t-8.5 30.5zM-2 485q12 193 121.5 259.5t286.5 39.5q14 10 26 11q16 0 28.5 -12.5t12.5 -28.5l2 -439q2 -29 8 -56.5t20.5 -44.5t36 -22.5t56.5 11.5q45 20 62.5 66t27.5 89q4 16 18.5 26.5t30.5 6.5t26.5 -17.5t6.5 -29.5q-10 -37 -22.5 -72.5t-32 -66.5t-47 -54.5 t-68.5 -33.5q-70 -16 -108.5 3t-61.5 60q-31 -35 -76 -53t-95 -16t-98 24.5t-86 67.5t-59.5 115.5t-15.5 166.5zM80 426q6 -98 40 -150.5t77 -71t87 -10t72 32.5q16 14 26.5 37t10.5 41v400h-2q-160 27 -241.5 -41t-69.5 -238z" />
<glyph unicode="&#xe4;" horiz-adv-x="686" d="M-2 485q12 193 121.5 259.5t286.5 39.5q14 10 26 11q16 0 28.5 -12.5t12.5 -28.5l2 -439q2 -29 8 -56.5t20.5 -44.5t36 -22.5t56.5 11.5q45 20 62.5 66t27.5 89q4 16 18.5 26.5t30.5 6.5t26.5 -17.5t6.5 -29.5q-10 -37 -22.5 -72.5t-32 -66.5t-47 -54.5t-68.5 -33.5 q-70 -16 -108.5 3t-61.5 60q-31 -35 -76 -53t-95 -16t-98 24.5t-86 67.5t-59.5 115.5t-15.5 166.5zM80 426q6 -98 40 -150.5t77 -71t87 -10t72 32.5q16 14 26.5 37t10.5 41v400h-2q-160 27 -241.5 -41t-69.5 -238zM102 934q0 23 15.5 38t38.5 15t39 -15.5t16 -37.5 q0 -23 -16.5 -38t-38.5 -15q-23 0 -38.5 15t-15.5 38zM309 934q0 23 16.5 38t39.5 15t38 -15.5t15 -37.5q0 -23 -15.5 -38t-37.5 -15q-23 0 -39.5 15t-16.5 38z" />
<glyph unicode="&#xe8;" horiz-adv-x="608" d="M1 444.5q3 100.5 40 180.5t100.5 130t134.5 50q47 0 85 -17.5t65 -47t42 -68.5t15 -80q2 -76 -36.5 -129t-99 -75.5t-132.5 -10.5t-133 67q2 -37 11 -81t32 -84q41 -70 93 -99.5t122 -29.5q104 -2 171 53t97 155q4 16 17.5 26.5t29.5 6.5t26.5 -17.5t8.5 -29.5 q-39 -123 -128 -200.5t-208 -77.5q-106 0 -186 43t-121 131q-49 104 -46 204.5zM51 1157q2 17 13.5 27t26.5 12t30 -12q47 -47 71.5 -70.5t44 -44t44 -45.5t71.5 -70q14 -14 12 -30.5t-12 -26.5t-26.5 -12t-30.5 12q-47 45 -71.5 69.5l-44 44t-44.5 44t-72 71.5 q-14 14 -12 31zM96 549q47 -53 95.5 -75.5t89.5 -20.5q61 4 90.5 46t29.5 91t-29.5 90t-86.5 41q-55 2 -109.5 -47t-79.5 -125z" />
<glyph unicode="&#xe9;" horiz-adv-x="608" d="M1 444.5q3 100.5 40 180.5t100.5 130t134.5 50q47 0 85 -17.5t65 -47t42 -68.5t15 -80q2 -76 -36.5 -129t-99 -75.5t-132.5 -10.5t-133 67q2 -37 11 -81t32 -84q41 -70 93 -99.5t122 -29.5q104 -2 171 53t97 155q4 16 17.5 26.5t29.5 6.5t26.5 -17.5t8.5 -29.5 q-39 -123 -128 -200.5t-208 -77.5q-106 0 -186 43t-121 131q-49 104 -46 204.5zM96 549q47 -53 95.5 -75.5t89.5 -20.5q61 4 90.5 46t29.5 91t-29.5 90t-86.5 41q-55 2 -109.5 -47t-79.5 -125zM210 923.5q-1 16.5 13 30.5q47 45 71.5 70t44 45.5t44.5 44t72 70.5 q14 14 29.5 12t26.5 -12t13 -27t-12 -31l-71.5 -71.5l-44 -44l-44 -44t-71.5 -69.5q-14 -14 -31 -12t-28 12t-12 26.5z" />
<glyph unicode="&#xea;" horiz-adv-x="608" d="M1 444.5q3 100.5 40 180.5t100.5 130t134.5 50q47 0 85 -17.5t65 -47t42 -68.5t15 -80q2 -76 -36.5 -129t-99 -75.5t-132.5 -10.5t-133 67q2 -37 11 -81t32 -84q41 -70 93 -99.5t122 -29.5q104 -2 171 53t97 155q4 16 17.5 26.5t29.5 6.5t26.5 -17.5t8.5 -29.5 q-39 -123 -128 -200.5t-208 -77.5q-106 0 -186 43t-121 131q-49 104 -46 204.5zM16 880.5q-2 16.5 11 30.5q45 45 62 63.5t29.5 30t30 29l64.5 64.5q12 12 29 12q16 0 28 -12l64.5 -64.5t30 -29t30 -30t64.5 -63.5q14 -14 12 -30.5t-12 -27.5t-26.5 -12t-31.5 13l-159 158h2 l-158 -158q-14 -14 -30.5 -13t-27 12t-12.5 27.5zM96 549q47 -53 95.5 -75.5t89.5 -20.5q61 4 90.5 46t29.5 91t-29.5 90t-86.5 41q-55 2 -109.5 -47t-79.5 -125z" />
<glyph unicode="&#xeb;" horiz-adv-x="608" d="M1 444.5q3 100.5 40 180.5t100.5 130t134.5 50q47 0 85 -17.5t65 -47t42 -68.5t15 -80q2 -76 -36.5 -129t-99 -75.5t-132.5 -10.5t-133 67q2 -37 11 -81t32 -84q41 -70 93 -99.5t122 -29.5q104 -2 171 53t97 155q4 16 17.5 26.5t29.5 6.5t26.5 -17.5t8.5 -29.5 q-39 -123 -128 -200.5t-208 -77.5q-106 0 -186 43t-121 131q-49 104 -46 204.5zM96 549q47 -53 95.5 -75.5t89.5 -20.5q61 4 90.5 46t29.5 91t-29.5 90t-86.5 41q-55 2 -109.5 -47t-79.5 -125zM102 934q0 23 15.5 38t38.5 15t39 -15.5t16 -37.5q0 -23 -16.5 -38t-38.5 -15 q-23 0 -38.5 15t-15.5 38zM309 934q0 23 16.5 38t39.5 15t38 -15.5t15 -37.5q0 -23 -15.5 -38t-37.5 -15q-23 0 -39.5 15t-16.5 38z" />
<glyph unicode="&#xec;" horiz-adv-x="432" d="M-123 1157q2 17 13.5 27t26.5 12t30 -12q47 -47 71.5 -70.5t44 -44t44 -45.5t71.5 -70q14 -14 12 -30.5t-12 -26.5t-26.5 -12t-30.5 12q-47 45 -71.5 69.5l-44 44t-44.5 44t-72 71.5q-14 14 -12 31zM2 406.5v33.5v314q0 16 12.5 28.5t28.5 12.5t28.5 -12.5t12.5 -28.5 v-416q4 -37 14.5 -68.5t32 -54t56 -33t87.5 -4.5q76 10 109 62.5t49 117.5q4 16 17.5 26.5t29.5 6.5t26.5 -17.5t6.5 -29.5q-12 -53 -33.5 -98t-53.5 -79t-76 -53.5t-103 -17.5q-113 2 -166 54.5t-70 130.5q-2 8 -4 30.5t-3 47t-1 48z" />
<glyph unicode="&#xed;" horiz-adv-x="432" d="M-99 923.5q-1 16.5 13 30.5q47 45 71.5 70t44 45.5t44 44t71.5 70.5q14 14 29.5 12t27 -12t13.5 -27t-12 -31q-47 -47 -72 -71.5t-44 -44t-44 -44t-72 -69.5q-14 -14 -30.5 -12t-27.5 12t-12 26.5zM2 406.5v33.5v314q0 16 12.5 28.5t28.5 12.5t28.5 -12.5t12.5 -28.5 v-416q4 -37 14.5 -68.5t32 -54t56 -33t87.5 -4.5q76 10 109 62.5t49 117.5q4 16 17.5 26.5t29.5 6.5t26.5 -17.5t6.5 -29.5q-12 -53 -33.5 -98t-53.5 -79t-76 -53.5t-103 -17.5q-113 2 -166 54.5t-70 130.5q-2 8 -4 30.5t-3 47t-1 48z" />
<glyph unicode="&#xee;" horiz-adv-x="432" d="M-188 880.5q-2 16.5 10 30.5q45 45 62.5 63.5t29.5 30t29.5 29l64.5 64.5q12 12 29 12q16 0 29 -12q47 -47 64 -64.5t29.5 -29t30 -30t64.5 -63.5q14 -14 12 -30.5t-12 -27.5t-26.5 -12t-30.5 13l-160 158h2l-158 -158q-14 -14 -30.5 -13t-26.5 12t-12 27.5zM2 406.5 v33.5v314q0 16 12.5 28.5t28.5 12.5t28.5 -12.5t12.5 -28.5v-416q4 -37 14.5 -68.5t32 -54t56 -33t87.5 -4.5q76 10 109 62.5t49 117.5q4 16 17.5 26.5t29.5 6.5t26.5 -17.5t6.5 -29.5q-12 -53 -33.5 -98t-53.5 -79t-76 -53.5t-103 -17.5q-113 2 -166 54.5t-70 130.5 q-2 8 -4 30.5t-3 47t-1 48z" />
<glyph unicode="&#xef;" horiz-adv-x="432" d="M-113 934q0 23 15.5 38t38.5 15t39 -15.5t16 -37.5q0 -23 -16.5 -38t-38.5 -15q-23 0 -38.5 15t-15.5 38zM2 406.5v33.5v314q0 16 12.5 28.5t28.5 12.5t28.5 -12.5t12.5 -28.5v-416q4 -37 14.5 -68.5t32 -54t56 -33t87.5 -4.5q76 10 109 62.5t49 117.5q4 16 17.5 26.5 t29.5 6.5t26.5 -17.5t6.5 -29.5q-12 -53 -33.5 -98t-53.5 -79t-76 -53.5t-103 -17.5q-113 2 -166 54.5t-70 130.5q-2 8 -4 30.5t-3 47t-1 48zM94 934q0 23 16.5 38t39.5 15t38 -15.5t15 -37.5q0 -23 -15.5 -38t-37.5 -15q-23 0 -39.5 15t-16.5 38z" />
<glyph unicode="&#xf1;" horiz-adv-x="692" d="M-20 969q14 53 47.5 84.5t74.5 40t87.5 -7t89.5 -58.5q18 -18 40.5 -23.5t43 1t38 22.5t25.5 41q4 16 19.5 24.5t31.5 4.5t24.5 -18.5t4.5 -30.5q-25 -68 -78 -105t-125 -20q-20 4 -54 31.5t-69 46t-67.5 13.5t-51.5 -65q-4 -16 -17 -25.5t-30 -4.5q-16 4 -26 18.5 t-8 30.5zM0 152v602q0 16 12.5 28.5t28.5 12.5t28.5 -12.5t12.5 -28.5v-47q33 51 84 74.5t98 23.5q78 0 140.5 -54.5t76.5 -162.5q2 -16 2 -32.5v-27.5v-213q2 -33 8.5 -64.5t21.5 -52t40 -25.5t63 15q47 23 59.5 72t16.5 92q2 16 14.5 28.5t28.5 10.5t28.5 -14t10.5 -29 q-4 -43 -15 -87t-32.5 -80t-56.5 -59.5t-86 -25.5t-86 14.5t-56.5 46t-31 70.5t-9.5 86q-2 23 -1 59t1 60v137q-6 76 -47 115t-93 39t-102 -38t-77 -112v-2v-419q0 -16 -12.5 -27.5t-28.5 -11.5t-28.5 11t-12.5 28z" />
<glyph unicode="&#xf2;" horiz-adv-x="669" d="M-4 358v201q0 51 22.5 96t59.5 77t83 50.5t93 18.5q78 -2 145.5 -50.5t94.5 -152.5q10 -10 10 -27q0 -45 1 -88t1 -86q2 2 10 2q57 16 87 42t67 67q10 14 25.5 17t29.5 -7t18.5 -25.5t-6.5 -29.5q-53 -61 -102 -99t-131 -49q0 -16 -6 -34q-16 -78 -69.5 -131.5 t-166.5 -53.5q-111 0 -188.5 65.5t-77.5 196.5zM51 1157q2 17 13.5 27t26.5 12t30 -12q47 -47 71.5 -70.5t44 -44t44 -45.5t71.5 -70q14 -14 12 -30.5t-12 -26.5t-26.5 -12t-30.5 12q-47 45 -71.5 69.5l-44 44t-44.5 44t-72 71.5q-14 14 -12 31zM78 352q0 -70 41 -117 t114 -57q94 -12 135.5 29t51.5 104q-70 4 -112 32t-59.5 67t-15 82t21.5 79.5t52 59t76 20.5q-33 45 -83 59.5t-97 0t-83 -55.5t-42 -106v-197zM317.5 502.5q-4.5 -25.5 5 -49t34 -43t67.5 -21.5v139q0 17 -2 25q-27 18 -49.5 14t-36.5 -21.5t-18.5 -43z" />
<glyph unicode="&#xf3;" horiz-adv-x="669" d="M-4 358v201q0 51 22.5 96t59.5 77t83 50.5t93 18.5q78 -2 145.5 -50.5t94.5 -152.5q10 -10 10 -27q0 -45 1 -88t1 -86q2 2 10 2q57 16 87 42t67 67q10 14 25.5 17t29.5 -7t18.5 -25.5t-6.5 -29.5q-53 -61 -102 -99t-131 -49q0 -16 -6 -34q-16 -78 -69.5 -131.5 t-166.5 -53.5q-111 0 -188.5 65.5t-77.5 196.5zM78 352q0 -70 41 -117t114 -57q94 -12 135.5 29t51.5 104q-70 4 -112 32t-59.5 67t-15 82t21.5 79.5t52 59t76 20.5q-33 45 -83 59.5t-97 0t-83 -55.5t-42 -106v-197zM210 923.5q-1 16.5 13 30.5q47 45 71.5 70t44 45.5 t44.5 44t72 70.5q14 14 29.5 12t26.5 -12t13 -27t-12 -31l-71.5 -71.5l-44 -44l-44 -44t-71.5 -69.5q-14 -14 -31 -12t-28 12t-12 26.5zM317.5 502.5q-4.5 -25.5 5 -49t34 -43t67.5 -21.5v139q0 17 -2 25q-27 18 -49.5 14t-36.5 -21.5t-18.5 -43z" />
<glyph unicode="&#xf4;" horiz-adv-x="669" d="M-4 358v201q0 51 22.5 96t59.5 77t83 50.5t93 18.5q78 -2 145.5 -50.5t94.5 -152.5q10 -10 10 -27q0 -45 1 -88t1 -86q2 2 10 2q57 16 87 42t67 67q10 14 25.5 17t29.5 -7t18.5 -25.5t-6.5 -29.5q-53 -61 -102 -99t-131 -49q0 -16 -6 -34q-16 -78 -69.5 -131.5 t-166.5 -53.5q-111 0 -188.5 65.5t-77.5 196.5zM16 880.5q-2 16.5 11 30.5q45 45 62 63.5t29.5 30t30 29l64.5 64.5q12 12 29 12q16 0 28 -12l64.5 -64.5t30 -29t30 -30t64.5 -63.5q14 -14 12 -30.5t-12 -27.5t-26.5 -12t-31.5 13l-159 158h2l-158 -158q-14 -14 -30.5 -13 t-27 12t-12.5 27.5zM78 352q0 -70 41 -117t114 -57q94 -12 135.5 29t51.5 104q-70 4 -112 32t-59.5 67t-15 82t21.5 79.5t52 59t76 20.5q-33 45 -83 59.5t-97 0t-83 -55.5t-42 -106v-197zM317.5 502.5q-4.5 -25.5 5 -49t34 -43t67.5 -21.5v139q0 17 -2 25q-27 18 -49.5 14 t-36.5 -21.5t-18.5 -43z" />
<glyph unicode="&#xf5;" horiz-adv-x="669" d="M-4 358v201q0 51 22.5 96t59.5 77t83 50.5t93 18.5q78 -2 145.5 -50.5t94.5 -152.5q10 -10 10 -27q0 -45 1 -88t1 -86q2 2 10 2q57 16 87 42t67 67q10 14 25.5 17t29.5 -7t18.5 -25.5t-6.5 -29.5q-53 -61 -102 -99t-131 -49q0 -16 -6 -34q-16 -78 -69.5 -131.5 t-166.5 -53.5q-111 0 -188.5 65.5t-77.5 196.5zM-4 969q14 53 48 84.5t75 40t87 -7t89 -58.5q18 -18 40.5 -23.5t43 1t38 22.5t25.5 41q4 16 19.5 24.5t32.5 4.5q16 -4 24 -18.5t4 -30.5q-25 -68 -78 -105t-125 -20q-20 4 -54 31.5t-68.5 46t-67.5 13.5t-51 -65 q-4 -16 -17.5 -25.5t-29.5 -4.5q-16 4 -26.5 18.5t-8.5 30.5zM78 352q0 -70 41 -117t114 -57q94 -12 135.5 29t51.5 104q-70 4 -112 32t-59.5 67t-15 82t21.5 79.5t52 59t76 20.5q-33 45 -83 59.5t-97 0t-83 -55.5t-42 -106v-197zM317.5 502.5q-4.5 -25.5 5 -49t34 -43 t67.5 -21.5v139q0 17 -2 25q-27 18 -49.5 14t-36.5 -21.5t-18.5 -43z" />
<glyph unicode="&#xf6;" horiz-adv-x="669" d="M-4 358v201q0 51 22.5 96t59.5 77t83 50.5t93 18.5q78 -2 145.5 -50.5t94.5 -152.5q10 -10 10 -27q0 -45 1 -88t1 -86q2 2 10 2q57 16 87 42t67 67q10 14 25.5 17t29.5 -7t18.5 -25.5t-6.5 -29.5q-53 -61 -102 -99t-131 -49q0 -16 -6 -34q-16 -78 -69.5 -131.5 t-166.5 -53.5q-111 0 -188.5 65.5t-77.5 196.5zM78 352q0 -70 41 -117t114 -57q94 -12 135.5 29t51.5 104q-70 4 -112 32t-59.5 67t-15 82t21.5 79.5t52 59t76 20.5q-33 45 -83 59.5t-97 0t-83 -55.5t-42 -106v-197zM84 934q0 23 15 38t38 15t39.5 -15.5t16.5 -37.5 q0 -23 -16.5 -38t-39.5 -15t-38 15t-15 38zM291 934q0 23 16 38t39 15t38 -15.5t15 -37.5q0 -23 -15 -38t-38 -15t-39 15t-16 38zM317.5 502.5q-4.5 -25.5 5 -49t34 -43t67.5 -21.5v139q0 17 -2 25q-27 18 -49.5 14t-36.5 -21.5t-18.5 -43z" />
<glyph unicode="&#xf9;" horiz-adv-x="708" d="M0 385v369q0 16 12.5 28.5t28.5 12.5t28.5 -12.5t12.5 -28.5v-420q6 -76 49 -115t96.5 -40t106.5 36t80 115v426q0 16 12 28.5t29 12.5q16 0 28.5 -12.5t12.5 -28.5q0 -104 1 -207t1 -207q0 -35 5 -72t19.5 -62.5t41 -33.5t69.5 14q45 23 58.5 72t17.5 92q0 16 13 28.5 t30 10.5q39 -4 39 -43q-6 -43 -16.5 -87t-32 -80t-56.5 -59.5t-86 -25.5q-74 -4 -111.5 26t-54.5 77q-43 -53 -95 -79t-103 -26q-109 2 -174.5 80t-61.5 211zM51 1157q2 17 13.5 27t26.5 12t30 -12q47 -47 71.5 -70.5t44 -44t44 -45.5t71.5 -70q14 -14 12 -30.5t-12 -26.5 t-26.5 -12t-30.5 12q-47 45 -71.5 69.5l-44 44t-44.5 44t-72 71.5q-14 14 -12 31z" />
<glyph unicode="&#xfa;" horiz-adv-x="708" d="M0 385v369q0 16 12.5 28.5t28.5 12.5t28.5 -12.5t12.5 -28.5v-420q6 -76 49 -115t96.5 -40t106.5 36t80 115v426q0 16 12 28.5t29 12.5q16 0 28.5 -12.5t12.5 -28.5q0 -104 1 -207t1 -207q0 -35 5 -72t19.5 -62.5t41 -33.5t69.5 14q45 23 58.5 72t17.5 92q0 16 13 28.5 t30 10.5q39 -4 39 -43q-6 -43 -16.5 -87t-32 -80t-56.5 -59.5t-86 -25.5q-74 -4 -111.5 26t-54.5 77q-43 -53 -95 -79t-103 -26q-109 2 -174.5 80t-61.5 211zM210 923.5q-1 16.5 13 30.5q47 45 71.5 70t44 45.5t44.5 44t72 70.5q14 14 29.5 12t26.5 -12t13 -27t-12 -31 l-71.5 -71.5l-44 -44l-44 -44t-71.5 -69.5q-14 -14 -31 -12t-28 12t-12 26.5z" />
<glyph unicode="&#xfb;" horiz-adv-x="708" d="M0 385v369q0 16 12.5 28.5t28.5 12.5t28.5 -12.5t12.5 -28.5v-420q6 -76 49 -115t96.5 -40t106.5 36t80 115v426q0 16 12 28.5t29 12.5q16 0 28.5 -12.5t12.5 -28.5q0 -104 1 -207t1 -207q0 -35 5 -72t19.5 -62.5t41 -33.5t69.5 14q45 23 58.5 72t17.5 92q0 16 13 28.5 t30 10.5q39 -4 39 -43q-6 -43 -16.5 -87t-32 -80t-56.5 -59.5t-86 -25.5q-74 -4 -111.5 26t-54.5 77q-43 -53 -95 -79t-103 -26q-109 2 -174.5 80t-61.5 211zM16 880.5q-2 16.5 11 30.5q45 45 62 63.5t29.5 30t30 29l64.5 64.5q12 12 29 12q16 0 28 -12l64.5 -64.5t30 -29 t30 -30t64.5 -63.5q14 -14 12 -30.5t-12 -27.5t-26.5 -12t-31.5 13l-159 158h2l-158 -158q-14 -14 -30.5 -13t-27 12t-12.5 27.5z" />
<glyph unicode="&#xfc;" horiz-adv-x="708" d="M0 385v369q0 16 12.5 28.5t28.5 12.5t28.5 -12.5t12.5 -28.5v-420q6 -76 49 -115t96.5 -40t106.5 36t80 115v426q0 16 12 28.5t29 12.5q16 0 28.5 -12.5t12.5 -28.5q0 -104 1 -207t1 -207q0 -35 5 -72t19.5 -62.5t41 -33.5t69.5 14q45 23 58.5 72t17.5 92q0 16 13 28.5 t30 10.5q39 -4 39 -43q-6 -43 -16.5 -87t-32 -80t-56.5 -59.5t-86 -25.5q-74 -4 -111.5 26t-54.5 77q-43 -53 -95 -79t-103 -26q-109 2 -174.5 80t-61.5 211zM96 934q0 23 15.5 38t38.5 15t39 -15.5t16 -37.5q0 -23 -16.5 -38t-38.5 -15q-23 0 -38.5 15t-15.5 38zM303 934 q0 23 16 38t39 15t38.5 -15.5t15.5 -37.5q0 -23 -15.5 -38t-38.5 -15t-39 15t-16 38z" />
<glyph unicode="&#xfd;" d="M0 319v435q0 16 12.5 28.5t28.5 12.5t31.5 -12.5t15.5 -28.5v-441q0 -66 38 -108.5t112 -52.5q51 -6 85.5 2t55 28.5t30 50t13.5 66.5v455q0 16 13.5 28.5t29.5 12.5t30.5 -12.5t14.5 -28.5v-416q0 -35 5 -68.5t18.5 -57.5t40 -32t71.5 8q47 23 59.5 72t16.5 92 q2 16 14.5 28.5t28.5 10.5t28.5 -14t10.5 -29q-4 -43 -15.5 -87t-33 -80t-56 -59.5t-86.5 -25.5q-59 -2 -102 21v-361q0 -147 -57.5 -215.5t-200.5 -68.5q-63 0 -112.5 32.5t-88.5 81.5q-10 16 -4 31.5t21.5 25t33 9.5t29.5 -19q23 -29 44.5 -46t57.5 -25q51 -6 86 2 t56.5 27.5t34 48t16.5 61.5q4 20 3 40.5t-1 41.5v326q-29 -23 -69 -37.5t-93 -14.5q-49 -2 -96 14.5t-85 49.5t-61.5 83t-23.5 115zM210 923.5q-1 16.5 13 30.5q47 45 71.5 70t44 45.5t44.5 44t72 70.5q14 14 29.5 12t26.5 -12t13 -27t-12 -31l-71.5 -71.5l-44 -44l-44 -44 t-71.5 -69.5q-14 -14 -31 -12t-28 12t-12 26.5z" />
<glyph unicode="&#xfe;" d="M0 -467v1853q0 16 12.5 28.5t28.5 12.5t28.5 -12t12.5 -29v-673q55 55 124.5 76.5t134.5 7t112 -67.5t57 -147v-267q2 -33 9 -64.5t21.5 -52t40 -25.5t64.5 15q45 23 58.5 72t17.5 92q0 16 13.5 28.5t29.5 10.5q39 -4 39 -43q-6 -43 -16.5 -87t-32 -80t-56 -59.5 t-86.5 -25.5q-72 -4 -109.5 25t-53.5 74q-33 -47 -83.5 -74t-121.5 -25q-55 0 -94 13.5t-68 37.5v-614q0 -16 -12.5 -27.5t-28.5 -11.5t-28.5 11.5t-12.5 27.5zM82 338q4 -37 14 -68.5t32 -54t56.5 -33t87.5 -4.5q74 10 107 58.5t49 113.5v223q0 76 -43 112t-100.5 35 t-114.5 -39t-84 -108q-2 -4 -2 -6t-2 -4v-225z" />
<glyph unicode="&#xff;" d="M0 319v435q0 16 12.5 28.5t28.5 12.5t31.5 -12.5t15.5 -28.5v-441q0 -66 38 -108.5t112 -52.5q51 -6 85.5 2t55 28.5t30 50t13.5 66.5v455q0 16 13.5 28.5t29.5 12.5t30.5 -12.5t14.5 -28.5v-416q0 -35 5 -68.5t18.5 -57.5t40 -32t71.5 8q47 23 59.5 72t16.5 92 q2 16 14.5 28.5t28.5 10.5t28.5 -14t10.5 -29q-4 -43 -15.5 -87t-33 -80t-56 -59.5t-86.5 -25.5q-59 -2 -102 21v-361q0 -147 -57.5 -215.5t-200.5 -68.5q-63 0 -112.5 32.5t-88.5 81.5q-10 16 -4 31.5t21.5 25t33 9.5t29.5 -19q23 -29 44.5 -46t57.5 -25q51 -6 86 2 t56.5 27.5t34 48t16.5 61.5q4 20 3 40.5t-1 41.5v326q-29 -23 -69 -37.5t-93 -14.5q-49 -2 -96 14.5t-85 49.5t-61.5 83t-23.5 115zM94 934q0 23 15 38t38 15t39.5 -15.5t16.5 -37.5q0 -23 -16.5 -38t-39.5 -15t-38 15t-15 38zM301 934q0 23 16 38t39 15t38.5 -15.5 t15.5 -37.5q0 -23 -15.5 -38t-38.5 -15t-39 15t-16 38z" />
<glyph unicode="&#x2000;" horiz-adv-x="835" />
<glyph unicode="&#x2001;" horiz-adv-x="1670" />
<glyph unicode="&#x2002;" horiz-adv-x="835" />
<glyph unicode="&#x2003;" horiz-adv-x="1670" />
<glyph unicode="&#x2004;" horiz-adv-x="556" />
<glyph unicode="&#x2005;" horiz-adv-x="417" />
<glyph unicode="&#x2006;" horiz-adv-x="278" />
<glyph unicode="&#x2007;" horiz-adv-x="278" />
<glyph unicode="&#x2008;" horiz-adv-x="208" />
<glyph unicode="&#x2009;" horiz-adv-x="334" />
<glyph unicode="&#x200a;" horiz-adv-x="92" />
<glyph unicode="&#x202f;" horiz-adv-x="334" />
<glyph unicode="&#x205f;" horiz-adv-x="417" />
<glyph unicode="&#x25fc;" horiz-adv-x="798" d="M0 0v799h799v-799h-799z" />
</font>
</defs>
</svg>
